<svg width="34" height="18" viewBox="0 0 34 18" fill="none" xmlns="http://www.w3.org/2000/svg">
<path d="M6.75284 16.3333C7.54713 16.3333 8.19104 15.7364 8.19104 15C8.19104 14.2636 7.54713 13.6667 6.75284 13.6667C5.95854 13.6667 5.31464 14.2636 5.31464 15C5.31464 15.7364 5.95854 16.3333 6.75284 16.3333Z" stroke="white" stroke-width="1.8" stroke-linecap="round" stroke-linejoin="round"/>
<path d="M15.382 16.3333C16.1763 16.3333 16.8202 15.7364 16.8202 15C16.8202 14.2636 16.1763 13.6667 15.382 13.6667C14.5877 13.6667 13.9438 14.2636 13.9438 15C13.9438 15.7364 14.5877 16.3333 15.382 16.3333Z" stroke="white" stroke-width="1.8" stroke-linecap="round" stroke-linejoin="round"/>
<path d="M5.07732 5H17.5393L16.3312 10.5933C16.2655 10.9003 16.0854 11.176 15.8225 11.3722C15.5595 11.5684 15.2305 11.6727 14.893 11.6667H7.29215C6.941 11.6694 6.6009 11.553 6.33597 11.3393C6.07103 11.1256 5.89959 10.8295 5.85395 10.5067L4.76091 2.82667C4.71559 2.50616 4.54621 2.21183 4.28429 1.99845C4.02238 1.78506 3.68577 1.66716 3.33709 1.66667H1.71912" stroke="white" stroke-width="1.8" stroke-linecap="round" stroke-linejoin="round"/>
<path d="M29.528 15.192C32.088 15.192 33.736 13.896 33.736 12.056C33.736 10.456 32.328 9.608 31.24 9.496C32.424 9.288 33.576 8.408 33.576 7.064C33.576 5.288 32.04 4.168 29.544 4.168C27.672 4.168 26.328 4.888 25.464 5.864L26.6 7.288C27.352 6.568 28.28 6.184 29.304 6.184C30.424 6.184 31.288 6.6 31.288 7.448C31.288 8.232 30.504 8.584 29.32 8.584C28.92 8.584 28.184 8.584 27.992 8.568V10.616C28.152 10.6 28.872 10.584 29.32 10.584C30.808 10.584 31.464 10.968 31.464 11.816C31.464 12.616 30.744 13.176 29.448 13.176C28.408 13.176 27.24 12.728 26.504 11.96L25.32 13.48C26.104 14.44 27.56 15.192 29.528 15.192Z" fill="white"/>
</svg>
