<svg width="16" height="22" viewBox="0 0 16 22" fill="none" xmlns="http://www.w3.org/2000/svg">
<path d="M9.49694 0C9.49694 0 10.2367 2.64915 10.2367 4.79845C10.2367 6.85779 8.88714 8.52725 6.8278 8.52725C4.75847 8.52725 3.19897 6.85779 3.19897 4.79845L3.22896 4.43857C1.20961 6.8378 0 9.94679 0 13.3257C0 17.7443 3.57885 21.3231 7.99742 21.3231C12.416 21.3231 15.9948 17.7443 15.9948 13.3257C15.9948 7.93744 13.4057 3.12899 9.49694 0ZM7.70752 18.3241C5.92809 18.3241 4.48855 16.9245 4.48855 15.1851C4.48855 13.5656 5.53822 12.426 7.29765 12.0661C9.06708 11.7062 10.8965 10.8565 11.9162 9.48694C12.306 10.7765 12.506 12.1361 12.506 13.5256C12.506 16.1748 10.3567 18.3241 7.70752 18.3241Z" fill="#FF4344"/>
</svg>
