<svg width="38" height="38" viewBox="0 0 38 38" fill="none" xmlns="http://www.w3.org/2000/svg">
<g clip-path="url(#clip0)">
<path d="M35.4732 19.4922C35.3203 19.1793 35.3203 18.8206 35.4732 18.5078L36.8905 15.6085C37.6796 13.9942 37.0544 12.07 35.4671 11.2279L32.6164 9.71532C32.3088 9.55219 32.098 9.26185 32.0378 8.91903L31.4803 5.74034C31.1698 3.97053 29.5327 2.78125 27.7539 3.03293L24.5586 3.48492C24.2137 3.5336 23.8727 3.42272 23.6225 3.1807L21.3031 0.936926C20.0116 -0.312465 17.9884 -0.312539 16.697 0.936926L14.3775 3.18092C14.1273 3.42302 13.7862 3.53368 13.4414 3.48514L10.2461 3.03315C8.46672 2.78133 6.83021 3.97075 6.51975 5.74056L5.96223 8.91911C5.90204 9.262 5.69118 9.55227 5.38369 9.71547L2.53297 11.228C0.945736 12.0701 0.320521 13.9944 1.10961 15.6087L2.52681 18.508C2.6797 18.8208 2.6797 19.1796 2.52681 19.4923L1.10954 22.3916C0.320446 24.0059 0.945661 25.93 2.53289 26.7722L5.38362 28.2847C5.69118 28.4479 5.90204 28.7382 5.96223 29.081L6.51975 32.2597C6.80238 33.8709 8.18388 35.0008 9.77163 35.0006C9.92801 35.0006 10.0867 34.9896 10.2462 34.9671L13.4415 34.5151C13.7861 34.4662 14.1274 34.5773 14.3776 34.8193L16.697 37.0631C17.3429 37.6878 18.1713 38.0002 19 38.0001C19.8285 38 20.6575 37.6877 21.303 37.0631L23.6225 34.8193C23.8727 34.5773 24.2138 34.4667 24.5586 34.5151L27.7539 34.9671C29.5335 35.2188 31.1698 34.0295 31.4803 32.2597L32.0379 29.0811C32.0981 28.7382 32.3089 28.448 32.6164 28.2847L35.4671 26.7722C37.0544 25.9301 37.6796 24.0058 36.8905 22.3915L35.4732 19.4922ZM34.4399 24.836L31.5891 26.3486C30.6803 26.831 30.0569 27.6888 29.8792 28.7023L29.3216 31.8809C29.2166 32.4797 28.663 32.8819 28.0609 32.7969L24.8656 32.3449C23.8465 32.2006 22.8382 32.5286 22.0986 33.2439L19.7792 35.4876C19.3423 35.9102 18.6578 35.9102 18.2208 35.4876L15.9014 33.2439C15.2763 32.6392 14.4592 32.3115 13.6061 32.3115C13.4498 32.3115 13.2922 32.3225 13.1345 32.3449L9.93914 32.7969C9.33753 32.8819 8.78349 32.4796 8.67839 31.8808L8.12079 28.7022C7.94296 27.6886 7.31968 26.8307 6.41073 26.3485L3.56 24.836C3.02296 24.551 2.81144 23.9001 3.0784 23.3539L4.49567 20.4546C4.94751 19.5301 4.94751 18.4698 4.49567 17.5454L3.0784 14.646C2.81144 14.0998 3.02296 13.4489 3.56 13.164L6.41073 11.6514C7.3196 11.169 7.94296 10.3112 8.12072 9.2977L8.67825 6.11907C8.78334 5.52028 9.33686 5.11802 9.93899 5.20307L13.1343 5.65506C14.153 5.79927 15.1617 5.47144 15.9012 4.75605L18.2207 2.51228C18.6576 2.08969 19.3421 2.08969 19.7791 2.51228L22.0985 4.75605C22.8381 5.47152 23.8466 5.79927 24.8654 5.65506L28.0607 5.20307C28.6624 5.11794 29.2165 5.52028 29.3215 6.11907L29.879 9.29777C30.0568 10.3113 30.6801 11.1692 31.5891 11.6514L34.4398 13.164C34.9768 13.4489 35.1884 14.0998 34.9214 14.646L33.5041 17.5453C33.0523 18.4697 33.0523 19.5301 33.5041 20.4545L34.9214 23.3538C35.1884 23.9001 34.9769 24.5511 34.4399 24.836Z" fill="white"/>
<path d="M27.007 10.9929C26.5791 10.565 25.8852 10.565 25.4572 10.9929L10.9929 25.4573C10.565 25.8853 10.565 26.5791 10.9929 27.0071C11.2069 27.221 11.4873 27.3281 11.7677 27.3281C12.0481 27.3281 12.3287 27.2211 12.5426 27.0071L27.0069 12.5427C27.435 12.1147 27.435 11.4209 27.007 10.9929Z" fill="white"/>
<path d="M14.6166 9.13746C12.4011 9.13746 10.5985 10.94 10.5985 13.1556C10.5985 15.3711 12.4011 17.1737 14.6166 17.1737C16.8322 17.1737 18.6347 15.3711 18.6347 13.1556C18.6347 10.94 16.8322 9.13746 14.6166 9.13746ZM14.6166 14.9819C13.6095 14.9819 12.7903 14.1626 12.7903 13.1555C12.7903 12.1484 13.6095 11.3291 14.6166 11.3291C15.6237 11.3291 16.4431 12.1484 16.4431 13.1555C16.443 14.1626 15.6237 14.9819 14.6166 14.9819Z" fill="white"/>
<path d="M23.3833 20.8264C21.1677 20.8264 19.3652 22.6289 19.3652 24.8445C19.3652 27.0601 21.1677 28.8626 23.3833 28.8626C25.5988 28.8626 27.4014 27.0601 27.4014 24.8445C27.4014 22.6289 25.5988 20.8264 23.3833 20.8264ZM23.3833 26.6709C22.3762 26.6709 21.5568 25.8516 21.5568 24.8445C21.5568 23.8374 22.3761 23.0181 23.3833 23.0181C24.3903 23.0181 25.2096 23.8374 25.2096 24.8445C25.2096 25.8516 24.3903 26.6709 23.3833 26.6709Z" fill="white"/>
</g>
<defs>
<clipPath id="clip0">
<rect width="38" height="38" fill="white"/>
</clipPath>
</defs>
</svg>
