<svg width="52" height="89" viewBox="0 0 52 89" fill="none" xmlns="http://www.w3.org/2000/svg">
<g clip-path="url(#clip0)">
<path d="M19.4229 42.6875H32.5074V47.5625H19.4229V42.6875Z" fill="#470718"/>
<path d="M20.9707 45.9375H31.0295V44.3125H20.9707V45.9375Z" fill="#470718"/>
<path d="M19.5 83.3125H32.5V88.1875H19.5V83.3125Z" fill="#470718"/>
<path d="M30.875 47.5625H21.125C14.8428 47.5625 9.75 52.6553 9.75 58.9375V71.9375C9.75 78.2197 14.8428 83.3125 21.125 83.3125H30.875C37.1572 83.3125 42.25 78.2197 42.25 71.9375V58.9375C42.25 52.6553 37.1572 47.5625 30.875 47.5625Z" fill="#E90D39"/>
<path opacity="0.3" d="M21.1494 81.3463L23.3594 83.3125H21.125C18.1082 83.3125 15.2149 82.1141 13.0817 79.9808C10.9484 77.8476 9.75 74.9543 9.75 71.9375V58.9375C9.75 55.9207 10.9484 53.0274 13.0817 50.8942C15.2149 48.7609 18.1082 47.5625 21.125 47.5625H24.2694L20.0119 52.8844C18.6291 54.6145 17.8756 56.7633 17.875 58.9781V74.0581C17.8757 75.4352 18.1679 76.7965 18.7322 78.0526C19.2965 79.3087 20.1203 80.4312 21.1494 81.3463Z" fill="#E5E6E7"/>
<path opacity="0.3" d="M42.25 58.9375V71.9375C42.25 74.9543 41.0515 77.8476 38.9183 79.9808C36.7851 82.1141 33.8918 83.3125 30.875 83.3125H28.6406L30.8506 81.3463C31.8797 80.4312 32.7034 79.3087 33.2678 78.0526C33.8321 76.7965 34.1242 75.4352 34.125 74.0581V58.9781C34.1244 56.7633 33.3709 54.6145 31.9881 52.8844L27.7306 47.5625H30.875C33.8918 47.5625 36.7851 48.7609 38.9183 50.8942C41.0515 53.0274 42.25 55.9207 42.25 58.9375Z" fill="#470718"/>
<path d="M19.5 89H32.5C32.7155 89 32.9222 88.9144 33.0745 88.762C33.2269 88.6097 33.3125 88.403 33.3125 88.1875V83.8813C36.0636 83.3158 38.5355 81.819 40.3116 79.6433C42.0877 77.4676 43.0593 74.7461 43.0625 71.9375V58.9375C43.058 56.2741 42.1819 53.6854 40.5681 51.5666C38.9543 49.4478 36.6914 47.9154 34.125 47.2034V42.6875C34.125 42.472 34.0394 42.2653 33.887 42.113C33.7347 41.9606 33.528 41.875 33.3125 41.875H26.8125V37.8125C26.8125 37.597 26.7269 37.3903 26.5745 37.238C26.4222 37.0856 26.2155 37 26 37C25.7845 37 25.5778 37.0856 25.4255 37.238C25.2731 37.3903 25.1875 37.597 25.1875 37.8125V41.875H19.5C19.2845 41.875 19.0778 41.9606 18.9255 42.113C18.7731 42.2653 18.6875 42.472 18.6875 42.6875V46.9938C15.9364 47.5592 13.4645 49.056 11.6884 51.2317C9.9123 53.4074 8.94074 56.1289 8.9375 58.9375V71.9375C8.94074 74.7461 9.9123 77.4676 11.6884 79.6433C13.4645 81.819 15.9364 83.3158 18.6875 83.8813V88.1875C18.6875 88.403 18.7731 88.6097 18.9255 88.762C19.0778 88.9144 19.2845 89 19.5 89ZM31.6875 84.125V87.375H20.3125V84.125H31.6875ZM20.3125 46.75V43.5H32.5V46.75H20.3125ZM21.125 48.375H30.875C32.6463 48.3767 34.3886 48.8241 35.9416 49.6761C37.4945 50.528 38.8081 51.7571 39.7613 53.25H12.2387C13.1919 51.7571 14.5055 50.528 16.0584 49.6761C17.6114 48.8241 19.3537 48.3767 21.125 48.375ZM11.375 54.875H40.625C41.1629 56.1618 41.4391 57.5428 41.4375 58.9375H39.8125C39.597 58.9375 39.3903 59.0231 39.238 59.1755C39.0856 59.3278 39 59.5345 39 59.75C39 59.9655 39.0856 60.1722 39.238 60.3245C39.3903 60.4769 39.597 60.5625 39.8125 60.5625H41.4375V64.625H10.5625V60.5625H31.6875C31.903 60.5625 32.1097 60.4769 32.262 60.3245C32.4144 60.1722 32.5 59.9655 32.5 59.75C32.5 59.5345 32.4144 59.3278 32.262 59.1755C32.1097 59.0231 31.903 58.9375 31.6875 58.9375H10.5625C10.5609 57.5428 10.8371 56.1618 11.375 54.875ZM10.5625 66.25H41.4375V70.3125H17.875C17.6595 70.3125 17.4528 70.3981 17.3005 70.5505C17.1481 70.7028 17.0625 70.9095 17.0625 71.125C17.0625 71.3405 17.1481 71.5472 17.3005 71.6995C17.4528 71.8519 17.6595 71.9375 17.875 71.9375H41.4375C41.4391 73.3322 41.1629 74.7132 40.625 76H11.375C10.8371 74.7132 10.5609 73.3322 10.5625 71.9375V66.25ZM12.2387 77.625H39.7613C38.8081 79.1179 37.4945 80.347 35.9416 81.1989C34.3886 82.0509 32.6463 82.4983 30.875 82.5H21.125C19.3537 82.4983 17.6114 82.0509 16.0584 81.1989C14.5055 80.347 13.1919 79.1179 12.2387 77.625Z" fill="#1E0202"/>
<path d="M34.9375 60.5625H36.5625C36.778 60.5625 36.9847 60.4769 37.137 60.3245C37.2894 60.1722 37.375 59.9655 37.375 59.75C37.375 59.5345 37.2894 59.3278 37.137 59.1755C36.9847 59.0231 36.778 58.9375 36.5625 58.9375H34.9375C34.722 58.9375 34.5153 59.0231 34.363 59.1755C34.2106 59.3278 34.125 59.5345 34.125 59.75C34.125 59.9655 34.2106 60.1722 34.363 60.3245C34.5153 60.4769 34.722 60.5625 34.9375 60.5625Z" fill="#1E0202"/>
<path d="M13 71.9375H14.625C14.8405 71.9375 15.0472 71.8519 15.1995 71.6995C15.3519 71.5472 15.4375 71.3405 15.4375 71.125C15.4375 70.9095 15.3519 70.7028 15.1995 70.5505C15.0472 70.3981 14.8405 70.3125 14.625 70.3125H13C12.7845 70.3125 12.5778 70.3981 12.4255 70.5505C12.2731 70.7028 12.1875 70.9095 12.1875 71.125C12.1875 71.3405 12.2731 71.5472 12.4255 71.6995C12.5778 71.8519 12.7845 71.9375 13 71.9375Z" fill="#1E0202"/>
</g>
<rect x="25" width="2" height="38" fill="#1E0202"/>
<defs>
<clipPath id="clip0">
<rect width="52" height="52" fill="white" transform="translate(0 37)"/>
</clipPath>
</defs>
</svg>
