<svg width="35" height="35" viewBox="0 0 35 35" fill="none" xmlns="http://www.w3.org/2000/svg">
<path d="M17.5 0C7.8505 0 0 7.85061 0 17.5001C0 27.1496 7.8505 35 17.5 35C27.1495 35 35 27.1496 35 17.5001C35 7.85061 27.1495 0 17.5 0ZM17.5 31.8182C9.60485 31.8182 3.18182 25.3952 3.18182 17.5001C3.18182 9.60506 9.60485 3.18182 17.5 3.18182C25.3952 3.18182 31.8182 9.60506 31.8182 17.5001C31.8182 25.3952 25.395 31.8182 17.5 31.8182Z" fill="white"/>
<path d="M17.4998 7.42424C16.3303 7.42424 15.379 8.37624 15.379 9.54641C15.379 10.7155 16.3303 11.6667 17.4998 11.6667C18.6692 11.6667 19.6205 10.7155 19.6205 9.54641C19.6205 8.37624 18.6692 7.42424 17.4998 7.42424Z" fill="white"/>
<path d="M17.5 14.8485C16.6214 14.8485 15.9091 15.5608 15.9091 16.4394V25.9849C15.9091 26.8635 16.6214 27.5758 17.5 27.5758C18.3786 27.5758 19.0909 26.8635 19.0909 25.9849V16.4394C19.0909 15.5608 18.3786 14.8485 17.5 14.8485Z" fill="white"/>
</svg>
